<svg width="11" height="11" viewBox="0 0 11 11" fill="none" xmlns="http://www.w3.org/2000/svg">
<path d="M0.472656 5.76953C0.472656 6.26172 0.871094 6.66016 1.36328 6.66016H4.61523V9.91211C4.61523 10.3984 5.00781 10.8027 5.5 10.8027C5.99219 10.8027 6.39062 10.3984 6.39062 9.91211V6.66016H9.64258C10.1289 6.66016 10.5273 6.26172 10.5273 5.76953C10.5273 5.2832 10.1289 4.88477 9.64258 4.88477H6.39062V1.63281C6.39062 1.14648 5.99219 0.742188 5.5 0.742188C5.00781 0.742188 4.61523 1.14648 4.61523 1.63281V4.88477H1.36328C0.871094 4.88477 0.472656 5.2832 0.472656 5.76953Z" fill="#000"/>
</svg>
