<svg width="24" height="25" viewBox="0 0 24 25" fill="none" xmlns="http://www.w3.org/2000/svg">
<path d="M11.7236 24.105C18.1475 24.105 23.437 18.8154 23.437 12.3916C23.437 5.979 18.1362 0.678223 11.7124 0.678223C5.2998 0.678223 0.0102539 5.979 0.0102539 12.3916C0.0102539 18.8154 5.2998 24.105 11.7236 24.105ZM10.4771 17.9731C10.0166 17.9731 9.65723 17.771 9.32031 17.3555L6.61377 14.0986C6.38916 13.8179 6.28809 13.5483 6.28809 13.2451C6.28809 12.6162 6.78223 12.1108 7.41113 12.1108C7.78174 12.1108 8.07373 12.2568 8.36572 12.6162L10.4434 15.2217L14.9692 7.98926C15.2388 7.57373 15.5757 7.34912 15.9688 7.34912C16.5752 7.34912 17.1367 7.78711 17.1367 8.41602C17.1367 8.68555 17.002 8.98877 16.8335 9.24707L11.5889 17.3442C11.3193 17.7485 10.9263 17.9731 10.4771 17.9731Z" fill="#000" fill-opacity="0.6"/>
</svg>
