<svg width="24" height="25" viewBox="0 0 24 25" fill="none" xmlns="http://www.w3.org/2000/svg">
<path d="M11.7236 24.105C18.1475 24.105 23.437 18.8154 23.437 12.3916C23.437 5.979 18.1362 0.678223 11.7124 0.678223C5.2998 0.678223 0.0102539 5.979 0.0102539 12.3916C0.0102539 18.8154 5.2998 24.105 11.7236 24.105ZM8.09619 17.1758C7.45605 17.1758 6.95068 16.6704 6.95068 16.0078C6.95068 15.7158 7.07422 15.4238 7.2876 15.2104L10.084 12.4141L7.2876 9.60645C7.07422 9.39307 6.95068 9.10107 6.95068 8.80908C6.95068 8.15771 7.45605 7.65234 8.09619 7.65234C8.44434 7.65234 8.70264 7.76465 8.92725 7.98926L11.7236 10.7744L14.5425 7.97803C14.7783 7.74219 15.0366 7.64111 15.3735 7.64111C16.0137 7.64111 16.519 8.14648 16.519 8.78662C16.519 9.10107 16.418 9.37061 16.1821 9.60645L13.3745 12.4141L16.1709 15.1992C16.3955 15.4126 16.5078 15.7046 16.5078 16.0078C16.5078 16.6704 16.0024 17.1758 15.3511 17.1758C15.0142 17.1758 14.7222 17.0635 14.5088 16.8389L11.7236 14.0537L8.94971 16.8389C8.7251 17.0635 8.44434 17.1758 8.09619 17.1758Z" fill="#000" fill-opacity="0.6"/>
</svg>
